<svg fill="#228BE6" xmlns="http://www.w3.org/2000/svg"  viewBox="0 0 64 64" width="64px" height="64px"><path d="M 13 6 C 9.1482075 6 6 9.1482075 6 13 L 6 51 C 6 54.851793 9.1482075 58 13 58 L 51 58 C 54.851793 58 58 54.851793 58 51 L 58 13 C 58 9.1482075 54.851793 6 51 6 L 13 6 z M 13 8 L 51 8 C 53.768207 8 56 10.231793 56 13 L 56 51 C 56 53.768207 53.768207 56 51 56 L 13 56 C 10.231793 56 8 53.768207 8 51 L 8 13 C 8 10.231793 10.231793 8 13 8 z M 20.802734 11.011719 C 20.133211 11.054387 19.470465 11.300769 18.917969 11.761719 C 17.886183 12.622777 16.729398 13.733676 16.162109 15.134766 C 14.949125 18.131678 14.978461 21.368529 17.060547 25 A 1.0001 1.0001 0 0 0 17.162109 25.142578 C 21.678177 34.417084 29.505801 42.250102 38.771484 46.787109 A 1.0001 1.0001 0 0 0 38.998047 46.964844 C 42.629517 49.046929 45.866368 49.078219 48.863281 47.865234 A 1.0001 1.0001 0 0 0 48.865234 47.865234 C 50.266129 47.298024 51.377671 46.141895 52.238281 45.109375 C 53.466589 43.636834 53.164138 41.38016 51.570312 40.304688 A 1.0001 1.0001 0 0 0 51.568359 40.304688 L 44.837891 35.761719 C 43.672135 34.974906 42.11656 35.043994 41.023438 35.927734 A 1.0001 1.0001 0 0 0 41.023438 35.929688 L 38.570312 37.916016 C 33.624662 34.766486 29.249011 30.393952 26.095703 25.449219 L 28.099609 22.974609 C 28.985071 21.881144 29.05212 20.327394 28.265625 19.162109 L 23.724609 12.429688 C 23.186899 11.632096 22.354058 11.158575 21.470703 11.037109 C 21.249864 11.006743 21.025909 10.997496 20.802734 11.011719 z M 20.9375 12.994141 C 21.023767 12.9879 21.110214 12.990445 21.195312 13.001953 C 21.535708 13.047983 21.855117 13.23542 22.066406 13.548828 L 26.607422 20.279297 A 1.0001 1.0001 0 0 0 26.607422 20.28125 C 26.908927 20.727965 26.88546 21.296262 26.544922 21.716797 L 24.068359 24.775391 A 1.0001 1.0001 0 0 0 23.994141 25.925781 C 27.461721 31.586112 32.432224 36.555949 38.09375 40.019531 A 1.0001 1.0001 0 0 0 39.244141 39.943359 L 42.28125 37.484375 C 42.702127 37.144115 43.272506 37.118732 43.71875 37.419922 L 50.451172 41.962891 C 51.077347 42.385418 51.192864 43.238666 50.701172 43.828125 C 49.939782 44.741605 48.920387 45.684929 48.113281 46.011719 C 45.587717 47.033928 43.286622 47.059201 40.140625 45.298828 A 1.0001 1.0001 0 0 0 40.138672 45.296875 A 1.0001 1.0001 0 0 0 39.912109 45.146484 C 30.882298 40.804919 23.184311 33.106961 18.845703 24.076172 A 1.0001 1.0001 0 0 0 18.767578 23.943359 C 16.956166 20.75138 16.983781 18.434135 18.015625 15.884766 C 18.342336 15.077855 19.285004 14.059817 20.199219 13.296875 C 20.420721 13.112074 20.6787 13.012864 20.9375 12.994141 z M 15.410156 29.603516 C 15.281453 29.621453 15.153906 29.664125 15.035156 29.734375 L 13.318359 30.761719 C 12.844359 31.045719 12.691609 31.660766 12.974609 32.134766 C 13.161609 32.447766 13.492031 32.619141 13.832031 32.619141 C 14.007031 32.619141 14.184703 32.573516 14.345703 32.478516 L 16.0625 31.451172 C 16.5365 31.167172 16.68925 30.554078 16.40625 30.080078 C 16.19325 29.723828 15.796266 29.549703 15.410156 29.603516 z M 18.53125 33.832031 C 18.278 33.794531 18.009563 33.853531 17.789062 34.019531 L 16.185547 35.212891 C 15.742547 35.541891 15.650469 36.169328 15.980469 36.611328 C 16.177469 36.874328 16.477203 37.013672 16.783203 37.013672 C 16.990203 37.013672 17.200906 36.949406 17.378906 36.816406 L 18.982422 35.621094 C 19.425422 35.292094 19.5175 34.666609 19.1875 34.224609 C 19.023 34.003609 18.7845 33.869531 18.53125 33.832031 z M 21.667969 37.759766 C 21.412344 37.747891 21.151266 37.833078 20.947266 38.017578 L 19.46875 39.363281 C 19.05975 39.734281 19.029391 40.367391 19.400391 40.775391 C 19.597391 40.993391 19.869625 41.103516 20.140625 41.103516 C 20.380625 41.103516 20.6205 41.01775 20.8125 40.84375 L 22.292969 39.498047 C 22.701969 39.127047 22.730375 38.493938 22.359375 38.085938 C 22.173875 37.880938 21.923594 37.771641 21.667969 37.759766 z M 25.179688 41.361328 C 24.924063 41.373453 24.672328 41.483 24.486328 41.6875 L 23.142578 43.167969 C 22.771578 43.575969 22.801938 44.209078 23.210938 44.580078 C 23.402938 44.754078 23.642813 44.839844 23.882812 44.839844 C 24.153813 44.839844 24.424094 44.728719 24.621094 44.511719 L 25.966797 43.03125 C 26.337797 42.62325 26.307437 41.990141 25.898438 41.619141 C 25.694938 41.434141 25.435312 41.349203 25.179688 41.361328 z M 29.015625 44.611328 C 28.7625 44.648328 28.522922 44.780953 28.357422 45.001953 L 27.162109 46.605469 C 26.832109 47.048469 26.925187 47.675859 27.367188 48.005859 C 27.547187 48.139859 27.756844 48.203125 27.964844 48.203125 C 28.270844 48.203125 28.569625 48.063781 28.765625 47.800781 L 29.960938 46.197266 C 30.290937 45.754266 30.197859 45.128828 29.755859 44.798828 C 29.534859 44.633828 29.26875 44.574328 29.015625 44.611328 z M 33.527344 47.443359 C 33.141375 47.389875 32.742297 47.565172 32.529297 47.919922 L 31.503906 49.634766 C 31.220906 50.108766 31.373656 50.723813 31.847656 51.007812 C 32.008656 51.103813 32.186328 51.148438 32.361328 51.148438 C 32.701328 51.148438 33.033703 50.976109 33.220703 50.662109 L 34.246094 48.945312 C 34.529094 48.471313 34.376344 47.858219 33.902344 47.574219 C 33.783844 47.503719 33.656 47.461187 33.527344 47.443359 z"/></svg>